HIERARCHY
ROOT Hips
{
  OFFSET 2.26061 22.2878 23.7974
  CHANNELS 6 Xposition Yposition Zposition Zrotation Xrotation Yrotation
  JOINT LeftUpLeg
  {
    OFFSET 8.64259 1.95398 -2.38835
    CHANNELS 3 Zrotation Xrotation Yrotation
    JOINT LeftLeg
    {
      OFFSET 43.7702 0 0
      CHANNELS 3 Zrotation Xrotation Yrotation
      JOINT LeftFoot
      {
        OFFSET 40.6238 0 0
        CHANNELS 3 Zrotation Xrotation Yrotation
        JOINT LeftToeBase
        {
          OFFSET 12.7242 0 0
          CHANNELS 3 Zrotation Xrotation Yrotation
          End Site
          {
            OFFSET 0 0 0
          }
        }
      }
    }
  }
  JOINT RightUpLeg
  {
    OFFSET -8.2249 1.95398 -2.59336
    CHANNELS 3 Zrotation Xrotation Yrotation
    JOINT RightLeg
    {
      OFFSET 43.5653 0 0
      CHANNELS 3 Zrotation Xrotation Yrotation
      JOINT RightFoot
      {
        OFFSET 40.6238 0 0
        CHANNELS 3 Zrotation Xrotation Yrotation
        JOINT RightToeBase
        {
          OFFSET 12.7242 0 0
          CHANNELS 3 Zrotation Xrotation Yrotation
          End Site
          {
            OFFSET 0 0 0
          }
        }
      }
    }
  }
  JOINT Spine
  {
    OFFSET 0.165834 0.87714 6.61349
    CHANNELS 3 Zrotation Xrotation Yrotation
    JOINT Spine1
    {
      OFFSET 7.38963 1.71661e-005 0
      CHANNELS 3 Zrotation Xrotation Yrotation
      JOINT Spine2
      {
        OFFSET 11.9445 1.14441e-005 0
        CHANNELS 3 Zrotation Xrotation Yrotation
        JOINT Spine3
        {
          OFFSET 14.7254 4.19617e-005 0
          CHANNELS 3 Zrotation Xrotation Yrotation
          JOINT Spine4
          {
            OFFSET 10.9679 0 0
            CHANNELS 3 Zrotation Xrotation Yrotation
            JOINT RightShoulder
            {
              OFFSET 2.46616 -1.6653 3.69651
              CHANNELS 3 Zrotation Xrotation Yrotation
              JOINT RightArm
              {
                OFFSET 13.0012 0 0
                CHANNELS 3 Zrotation Xrotation Yrotation
                JOINT RightForeArm
                {
                  OFFSET 28.7848 1.52588e-005 0
                  CHANNELS 3 Zrotation Xrotation Yrotation
                  JOINT RightHand
                  {
                    OFFSET 26.5688 1.52588e-005 0
                    CHANNELS 3 Zrotation Xrotation Yrotation
                    End Site
                    {
                      OFFSET 0 0 0
                    }
                  }
                }
              }
            }
            JOINT LeftShoulder
            {
              OFFSET 2.38034 -1.29275 -3.7523
              CHANNELS 3 Zrotation Xrotation Yrotation
              JOINT LeftArm
              {
                OFFSET 16.3182 6.10351e-005 0
                CHANNELS 3 Zrotation Xrotation Yrotation
                JOINT LeftForeArm
                {
                  OFFSET 27.0901 0 0
                  CHANNELS 3 Zrotation Xrotation Yrotation
                  JOINT LeftHand
                  {
                    OFFSET 24.5451 1.52588e-005 0
                    CHANNELS 3 Zrotation Xrotation Yrotation
                    End Site
                    {
                      OFFSET 0 0 0
                    }
                  }
                }
              }
            }
            JOINT Neck
            {
              OFFSET 5.0226 -0.0266342 0
              CHANNELS 3 Zrotation Xrotation Yrotation
              JOINT Head
              {
                OFFSET 6.69363 2.86102e-005 0
                CHANNELS 3 Zrotation Xrotation Yrotation
                End Site
                {
                  OFFSET 0 0 0
                }
              }
            }
          }
        }
      }
    }
  }
}
MOTION
Frames:	14
Frame Time:	0.0416667
-266.684 91.7347 -293.972 -88.1107 14.5063 -100.011 -174.367 10.621 98.3092 -55.03 52.4892 9.38378 9.90428 -35.3148 -11.9882 115.87 23.8247 -54.2497 162.985 34.6296 76.4265 -46.1315 2.43246 6.16479 63.4317 -1.68238 -0.947665 36.9542 0.332703 -10.6824 -6.97508 4.66122 -89.7426 17.8973 -13.5814 3.06311 6.29362 -13.4333 3.66809 -16.8246 -13.8618 -1.24146 3.18808 -13.8618 -1.24146 60.639 -34.7911 -153.8 29.7158 -1.59928 64.4595 -14.6304 -20.4086 -49.1813 -14.4195 -1.30883 4.44165 -79.6376 -65.1579 94.837 -16.9279 10.5894 18.2263 -74.62 -32.1618 -76.4008 -100.937 -33.252 24.3903 -50.9596 25.6645 26.7904 34.1696 37.2272 9.30567 
-264.79 92.6222 -291.883 -85.7785 30.2695 -99.305 -176.219 6.70798 92.095 -60.6673 33.1505 11.7006 44.5023 -14.2173 -4.17239 47.3741 15.966 5.57841 171.846 33.2068 83.09 -36.4406 -1.95599 0.0888511 55.7756 0.0911184 0.335046 39.3961 0.17338 -12.9791 -3.83758 5.79292 -89.767 15.3809 -7.4682 1.63099 3.72946 -7.38913 1.95975 -18.9743 -7.61133 -0.702046 1.03832 -7.61131 -0.702039 70.7971 -39.8953 -135.031 34.8807 -0.311201 57.3794 -11.5155 -14.2617 -50.9065 -21.0756 -1.62511 3.81487 -123.338 -58.6441 37.097 -5.27143 -9.72255 33.6878 -72.8202 -3.41833 -88.1363 -107.592 -42.756 31.7933 -40.8926 13.9973 17.4298 37.2359 20.6685 5.90068 
-261.241 94.6245 -286.796 -80.8456 43.4438 -99.4445 -173.347 2.64546 91.8003 -46.5756 23.8566 2.80343 54.6784 -3.2517 -1.90651 35.2036 4.96612 13.005 178.206 28.8555 88.5288 -13.9335 -10.0082 -3.80374 44.9877 3.44006 3.19716 28.0836 0.779964 -12.1872 -1.39257 6.91387 -89.4422 13.0695 -2.49685 1.42019 1.40067 -2.43189 1.5288 -21.1576 -2.80817 0.603222 -1.14492 -2.80815 0.603224 83.9139 -47.9402 -110.786 34.1591 -5.16362 42.4387 -6.64851 -12.5802 -53.0682 -19.5233 -0.765064 -0.541121 -113.887 -50.7959 45.0535 -3.97041 -7.49165 25.3828 -4.9464 -1.20551 -102.423 -65.2622 -3.76769 10.4456 -19.7762 7.65304 4.62318 27.2641 8.78577 3.13361 
-255.187 95.4537 -279.717 -76.5435 46.0984 -103.152 -174.016 5.88207 88.842 -40.8364 21.1421 0.88103 56.461 -1.10875 -0.873853 42.7494 12.1994 12.1167 177.477 30.7185 88.459 -7.25586 -16.4856 -3.5718 48.7623 3.10731 2.69254 17.7227 0.238916 -4.4818 -0.92138 7.38497 -89.1949 12.1125 -1.4511 1.76551 0.441097 -1.37201 1.82765 -22.0953 -1.91457 1.2478 -2.08267 -1.91458 1.24779 91.7882 -51.6079 -97.7715 31.3778 -10.0371 32.6777 -5.09321 -12.8145 -56.2855 -18.7953 -0.505546 -1.97565 -103.843 -50.3247 58.6349 -7.1834 0.379827 15.3178 8.31669 -4.37812 -103.142 28.2951 1.7363 4.17185 2.71878 7.8158 0.611544 10.5494 7.87759 2.03391 
-249.02 95.4426 -272.676 -77.2441 48.7075 -100.829 -173.982 9.37573 88.873 -39.3831 21.1933 0.498943 57.9279 -0.0196475 1.29901 43.6788 13.1215 12.373 -179.799 33.2449 89.5096 -21.1351 -11.403 -4.6427 40.3684 5.1025 5.11151 58.3388 0.809621 -3.46411 -0.489079 7.69688 -89.3672 11.4825 -0.67722 1.32966 -0.18897 -0.618045 1.35817 -22.7217 -1.04553 1.0647 -2.70909 -1.04552 1.0647 94.2848 -54.6628 -93.5454 27.1467 -13.1098 26.5806 -5.02217 -12.6397 -61.1963 -20.5142 -0.54624 -1.92267 -99.7078 -50.6099 64.649 -11.0211 7.12942 12.2073 10.1274 -5.28724 -98.4467 27.393 0.567247 -1.89517 10.4186 6.61553 7.53105 5.95089 4.56612 -4.28739 
-243.455 94.7535 -265.389 -79.7979 52.6348 -97.1756 -173.818 12.3354 88.7432 -38.1543 18.5797 0.118431 56.2351 -0.991331 0.485347 44.8992 14.3155 12.5169 -179.52 34.3232 90.9392 -42.7172 -4.99185 -4.43321 53.7546 0.905908 0.892557 54.9545 0.571086 -4.72516 -0.0965114 7.86159 -89.5862 11.1497 0.000239679 0.823832 -0.52149 0.0364737 0.823022 -23.0547 -0.247371 0.785817 -3.04204 -0.247375 0.785825 92.8284 -53.7171 -95.8289 24.8617 -14.1114 19.9185 -6.94198 -13.506 -64.5987 -23.6583 -0.730885 -1.24972 -99.4856 -51.0975 65.1427 -15.426 10.2474 15.1694 8.77364 -1.73153 -91.9837 27.7828 0.766238 -1.19271 8.04498 7.49041 5.49959 6.62026 6.16109 -1.80025 
-237.43 93.1447 -258.464 -83.9442 54.7128 -93.067 -173.52 16.8971 88.555 -43.6049 15.2013 0.0474544 60.7088 3.36781 4.73105 45.6323 14.5756 9.74512 -179.602 32.9153 91.145 -61.967 1.60127 -4.08015 61.203 -2.33834 -1.38011 42.6652 0.211718 -8.26796 0.182066 8.07416 -89.7511 10.7251 0.477331 0.450803 -0.945765 0.496703 0.429358 -23.4808 0.319772 0.573421 -3.46812 0.319778 0.573417 92.562 -52.4177 -96.4512 22.1217 -13.8806 11.6037 -10.4142 -12.8505 -68.7028 -24.9684 -0.879533 -0.636976 -100.039 -52.6345 64.8961 -19.1173 12.1505 16.9322 5.03142 -4.29844 -80.8155 29.5801 0.714484 -1.51942 7.4355 8.37185 2.36058 5.68478 7.95029 1.9104 
-231.681 91.4797 -252.381 -84.8418 55.8218 -92.1284 -173.624 21.9365 88.3917 -46.1743 14.4212 0.227446 65.8883 8.56685 8.88229 41.7083 10.7532 7.31351 -179.732 29.3015 90.3333 -72.9593 4.5596 -4.02277 59.659 -2.82059 -1.69551 40.8836 0.224422 -9.14168 0.423272 8.05751 -89.7888 10.7576 0.940368 0.333178 -0.913053 0.954138 0.291456 -23.4499 0.796772 0.600409 -3.43727 0.796756 0.600401 92.0102 -50.4151 -97.6561 21.4499 -13.3417 4.29141 -9.37747 -10.2294 -72.6749 -26.9497 -1.04386 -0.304328 -100.532 -53.0375 64.3473 -23.4009 12.1776 19.6352 4.03865 -0.375679 -68.6643 30.257 1.75395 1.94621 10.1374 7.80677 1.6771 2.96671 7.4233 1.86051 
-225.99 90.6793 -247.02 -86.5265 54.8086 -91.6429 -173.589 25.4242 87.7365 -45.168 10.2959 0.0149746 67.8583 9.52972 6.83854 37.9079 7.29261 4.28767 179.304 21.7221 88.2847 -76.3091 4.20172 -4.33908 55.3094 -1.74002 -1.03522 41.6457 0.163328 -9.97036 0.500764 7.96612 -89.6264 10.9383 1.16979 0.632454 -0.73225 1.19649 0.580342 -23.2691 0.925631 0.954786 -3.25642 0.92562 0.954783 91.9606 -49.8986 -97.8329 20.2478 -12.7466 -0.417716 -13.6995 -10.4541 -76.5434 -27.5372 -0.746778 -1.42437 -100.43 -51.937 64.097 -28.3902 14.9787 25.3217 -0.667066 -0.528209 -60.4911 33.4276 1.80275 1.4871 10.0624 6.46524 -0.829928 2.20529 6.65786 3.05009 
-219.975 92.1215 -241.803 -90.2621 52.0066 -88.9737 -174.809 25.1212 88.3917 -37.6416 13.6154 0.42312 62.6004 5.03629 5.20101 33.3715 3.46395 4.27951 175.866 10.0547 86.8332 -69.2518 3.33753 -4.31496 51.6866 0.186934 0.395439 38.2004 0.311495 -9.06417 0.685787 8.0757 -89.6248 10.7188 1.53856 0.603711 -0.9514 1.56364 0.535392 -23.4908 1.286 1.03825 -3.47818 1.28599 1.03824 92.7929 -48.4183 -96.8232 20.9141 -13.09 -2.2363 -14.4671 -8.67955 -81.0074 -27.0488 -0.496165 -2.45565 -100.523 -51.7571 63.9021 -32.2712 17.0245 32.2179 -2.55104 -1.44614 -63.8406 36.1543 2.22775 2.26304 8.39949 4.12181 -0.560679 2.9397 4.2713 2.12492 
-213.783 95.0394 -236.441 -87.1741 50.4047 -91.1897 -175.282 23.3287 89.9998 -17.6907 17.3394 0.301804 48.3954 -5.98434 -1.71482 30.048 0.611637 4.38494 175.082 2.84046 87.5111 -55.9343 1.19685 -5.07403 50.125 1.82462 1.7143 34.1267 0.412179 -8.99364 1.04714 7.82209 -89.6796 11.2273 2.23309 0.418768 -0.441754 2.24937 0.320025 -22.9893 2.00395 1.07078 -2.97671 2.00395 1.07078 92.8658 -48.1318 -96.761 19.8079 -14.3237 -1.61142 -16.5685 -7.27061 -85.0472 -28.153 -0.437695 -2.69358 -97.7073 -50.5783 67.5284 -35.0767 18.4036 34.6678 -3.35874 -1.90746 -66.0544 37.0366 1.82887 0.986801 7.0205 1.81498 1.79283 3.20538 1.4577 -0.31787 
-207.165 97.6557 -230.653 -82.502 48.7716 -93.4861 -174.33 25.4503 92.0236 -5.24877 18.6465 -0.671973 40.8944 -12.3292 -10.4144 29.0135 -0.97928 11.044 176.21 0.0239011 90.1622 -43.5926 -5.17754 -5.56619 47.1293 3.1592 2.92317 31.6916 0.45234 -7.49504 1.19562 7.49992 -89.8969 11.8773 2.42614 -0.0530622 0.208577 2.42144 -0.159855 -22.3438 2.32986 0.678955 -2.33116 2.32987 0.678958 93.0888 -47.7473 -96.4807 18.0549 -17.2585 -0.720412 -18.5079 -6.12585 -87.7457 -26.4103 -0.978447 -0.266262 -95.8395 -50.8715 70.3366 -35.5868 15.3243 35.7415 -2.77765 -2.3531 -70.0909 37.4204 1.87243 1.04912 7.79324 0.740789 5.29119 1.61836 -0.393482 -3.36429 
-200.419 98.5531 -224.881 -76.2589 47.4533 -97.9989 -174.648 28.908 92.5659 -7.24938 18.1761 -0.596776 45.6701 -9.06928 -6.11272 35.4963 5.19443 14.0649 177.959 2.49771 92.1267 -36.6501 -11.0843 -6.28245 48.2338 2.9678 2.68179 38.867 0.256881 -10.3826 1.15449 7.15561 -89.855 12.565 2.36262 0.014919 0.896197 2.36099 -0.0891445 -21.655 2.24886 0.724666 -1.64238 2.24886 0.724661 93.4648 -47.9215 -95.8535 18.8217 -18.5099 0.581813 -19.1624 -5.85071 -88.1611 -22.6684 -0.794738 -0.708426 -95.7966 -50.9439 70.4212 -34.5138 9.78051 35.3254 -2.37603 -2.75791 -74.9449 37.8323 1.42484 -0.23111 11.601 1.12524 4.01218 -0.447826 0.201971 -1.42969 
-192.899 98.2149 -218.161 -78.9088 46.6249 -96.5732 -174.895 29.7327 92.2174 -24.4289 16.6386 0.128011 50.4606 -5.53869 -1.79473 40.3631 10.1978 15.8694 178.378 3.91662 92.9752 -35.4035 -10.3232 -6.07012 51.3211 1.93518 1.71229 39.1777 0.274547 -9.75414 0.985541 7.46478 -89.8363 11.9455 2.03687 0.108164 0.27616 2.03963 0.0183687 -22.2706 1.91014 0.715538 -2.25801 1.91015 0.71554 93.4029 -49.4345 -95.6864 19.4658 -18.234 3.18511 -18.2022 -7.75393 -84.7226 -22.6385 -0.595416 -1.66621 -97.4794 -52.9095 68.6104 -30.7719 7.91381 31.8165 0.381964 -2.02439 -77.4813 38.7567 1.66848 0.320641 14.1485 1.57412 3.79351 -0.924664 0.61903 -1.01004 
